<svg xmlns="http://www.w3.org/2000/svg" width="240" height="160" viewBox="0 0 240 160"><defs></defs><rect x="20" y="60" width="200" height="90" rx="4" fill="#c9a37a" stroke="#3b2a20" stroke-width="4" /><path d="M20.0 36 L53.3 36 L50.0 62 L23.0 62 Z" fill="#c8553d" stroke="#3b2a20" stroke-width="3" stroke-linejoin="round" stroke-linecap="round" /><path d="M53.3 36 L86.6 36 L83.3 62 L56.3 62 Z" fill="#fff3d6" stroke="#3b2a20" stroke-width="3" stroke-linejoin="round" stroke-linecap="round" /><path d="M86.6 36 L119.89999999999999 36 L116.6 62 L89.6 62 Z" fill="#c8553d" stroke="#3b2a20" stroke-width="3" stroke-linejoin="round" stroke-linecap="round" /><path d="M119.89999999999999 36 L153.2 36 L149.89999999999998 62 L122.89999999999999 62 Z" fill="#fff3d6" stroke="#3b2a20" stroke-width="3" stroke-linejoin="round" stroke-linecap="round" /><path d="M153.2 36 L186.5 36 L183.2 62 L156.2 62 Z" fill="#c8553d" stroke="#3b2a20" stroke-width="3" stroke-linejoin="round" stroke-linecap="round" /><path d="M186.5 36 L219.8 36 L216.5 62 L189.5 62 Z" fill="#fff3d6" stroke="#3b2a20" stroke-width="3" stroke-linejoin="round" stroke-linecap="round" /><rect x="14" y="26" width="212" height="12" rx="3" fill="#6b4226" stroke="#3b2a20" stroke-width="3" /></svg>